HIERARCHY
ROOT Hips
{
	OFFSET 0.00000 0.00000 0.00000
	CHANNELS 6 Xposition Yposition Zposition Zrotation Yrotation Xrotation 
	JOINT LHipJoint
	{
		OFFSET 0 0 0
		CHANNELS 3 Zrotation Yrotation Xrotation
		JOINT LeftHip
		{
			OFFSET 1.62964 -1.40469 0.78906
			CHANNELS 3 Zrotation Yrotation Xrotation
			JOINT LeftKnee
			{
				OFFSET 2.29640 -6.30932 0.00000
				CHANNELS 3 Zrotation Yrotation Xrotation
				JOINT LeftAnkle
				{
					OFFSET 2.29451 -6.30412 0.00000
					CHANNELS 3 Zrotation Yrotation Xrotation
					JOINT LeftToe
					{
						OFFSET 0.03611 -0.09921 1.56387
						CHANNELS 3 Zrotation Yrotation Xrotation
						End Site
						{
							OFFSET 0.00000 -0.00000 0.80291
						}
					}
				}
			}
		}
	}
	JOINT RHipJoint
	{
		OFFSET 0 0 0
		CHANNELS 3 Zrotation Yrotation Xrotation
		JOINT RightHip
		{
			OFFSET -1.73712 -1.40469 0.78906
			CHANNELS 3 Zrotation Yrotation Xrotation
			JOINT RightKnee
			{
				OFFSET -2.28137 -6.26801 0.00000
				CHANNELS 3 Zrotation Yrotation Xrotation
				JOINT RightAnkle
				{
					OFFSET -2.28681 -6.28298 0.00000
					CHANNELS 3 Zrotation Yrotation Xrotation
					JOINT RightToe
					{
						OFFSET -0.15927 -0.43759 1.61103
						CHANNELS 3 Zrotation Yrotation Xrotation
						End Site
						{
							OFFSET -0.00000 -0.00000 0.84630
						}
					}
				}
			}
		}
	}
	JOINT lowerback
	{
		OFFSET 0 0 0
		CHANNELS 3 Zrotation Yrotation Xrotation
		JOINT Chest
		{
			OFFSET -0.04227 2.04338 -0.00225
			CHANNELS 3 Zrotation Yrotation Xrotation
			JOINT Chest2
			{
				OFFSET -0.02148 2.04482 -0.04273
				CHANNELS 3 Zrotation Yrotation Xrotation
				JOINT lowerneck
				{
					OFFSET 0 0 0
					CHANNELS 3 Zrotation Yrotation Xrotation
					JOINT Neck
					{
						OFFSET 0.09180 1.44629 0.19359
						CHANNELS 3 Zrotation Yrotation Xrotation
						JOINT Head
						{
							OFFSET 0.00887 1.40645 0.14750
							CHANNELS 3 Zrotation Yrotation Xrotation
							End Site
							{
								OFFSET -0.00669 1.50671 0.03707
							}
						}
					}
				}
				JOINT LeftCollar
				{
					OFFSET 0 0 0
					CHANNELS 3 Zrotation Yrotation Xrotation
					JOINT LeftShoulder
					{
						OFFSET 2.17674 1.86763 -0.06520
CHANNELS 3 Zrotation Xrotation Yrotation
						JOINT LeftElbow
						{
OFFSET 0 -4.657760 0.000000
CHANNELS 3 Zrotation Xrotation Yrotation
							JOINT LeftWrist
							{
OFFSET 0 -3.555390 0.000000
CHANNELS 3 Zrotation Xrotation Yrotation
								JOINT lhand
								{
									OFFSET 0 0 0
CHANNELS 3 Zrotation Xrotation Yrotation
									JOINT LFingers
									{
OFFSET 0 -0.707260 0.000000
CHANNELS 3 Zrotation Xrotation Yrotation
										End Site
										{
OFFSET 0 -0.570220 0.000000
										}
									}
								}
								JOINT LThumb
								{
OFFSET 0 0.000000 0.000000
CHANNELS 3 Zrotation Xrotation Yrotation
									End Site
									{
OFFSET 0 -0.578920 0.578920
									}
								}
							}
						}
					}
				}
				JOINT RightCollar
				{
					OFFSET 0 0 0
					CHANNELS 3 Zrotation Yrotation Xrotation
					JOINT RightShoulder
					{
						OFFSET -2.80694 1.55459 -0.32496
CHANNELS 3 Zrotation Xrotation Yrotation
						JOINT RightElbow
						{
OFFSET 0 -4.719250 -0.000000
CHANNELS 3 Zrotation Xrotation Yrotation
							JOINT RightWrist
							{
OFFSET 0 -3.569900 0.000000
CHANNELS 3 Zrotation Xrotation Yrotation
								JOINT rhand
								{
									OFFSET 0 0 0
CHANNELS 3 Zrotation Xrotation Yrotation
									JOINT RFingers
									{
OFFSET 0 -0.507760 0.000000
CHANNELS 3 Zrotation Xrotation Yrotation
										End Site
										{
OFFSET 0 -0.409370 0.000000
										}
									}
								}
								JOINT RThumb
								{
OFFSET 0 0.000000 0.000000
CHANNELS 3 Zrotation Xrotation Yrotation
									End Site
									{
OFFSET 0 -0.415620 0.415620
									}
								}
							}
						}
					}
				}
			}
		}
	}
}
MOTION
Frames: 5
Frame Time: .0083333
8.7882 16.3432 31.4834 178.7520 2.3195 -157.0410 0.0000 0.0000 0.0000 -19.4152 -15.8564 -15.6419 0.1290 2.3151 6.3774 0.2268 1.6884 -9.7787 5.2895 -13.7026 -42.0588 0.0000 0.0000 0.0000 16.1002 15.7467 -16.6869 -0.2351 -3.1206 8.6147 -2.1238 1.1668 -27.2555 -0.9570 6.2295 -17.4517 -6.3583 -1.8100 -27.3149 -0.4904 0.2787 -1.7406 3.2726 0.0178 13.3100 -2.3763 -4.1903 -0.5741 6.2756 -4.7521 -9.5491 2.5447 -2.2797 -2.7374 0.0000 0.0000 0.0000 3.9685 -2.6192 -20.4353 10.9399 -18.1961 1.7571 22.6164 6.7063 12.2784 0.0 0.0 0.0 -7.1250 0.0 0.0 -3.2028 16.7267 -2.1489 0.0000 0.0000 0.0000 1.7027 1.537 10.0749 -16.1373 -25.7065 -3.7053 -42.1519 44.4069 67.7311 0.0 0.0 0.0 7.1250 0.0 -0.0 -171.7297 13.2203 6.2263
8.7939 16.3296 31.4858 179.4270 2.0239 -157.3090 0.0000 0.0000 0.0000 -18.6268 -15.4847 -15.4875 0.1303 2.3269 6.4100 0.2262 1.4767 -9.6495 5.3815 -13.8010 -42.4459 0.0000 0.0000 0.0000 17.1069 15.6198 -16.2864 -0.2346 -3.1172 8.6052 -2.1368 1.2634 -27.3137 -0.9181 6.1049 -17.0892 -5.6881 -1.6694 -27.0196 -0.2695 0.1699 -1.6495 3.0950 -0.0154 13.2650 -2.4913 -4.2168 -0.5183 6.3099 -4.7724 -9.7243 2.5840 -2.2848 -2.8028 0.0000 -0.0000 0.0000 3.9029 -2.5985 -19.969 10.6024 -17.6763 1.6532 22.7762 6.917 12.4434 0.0 0.0 0.0 -7.1250 0.0 0.0 -3.0996 16.5337 -2.0924 0.0000 -0.0000 0.0000 1.6033 1.5079 10.1526 -15.9605 -25.4671 -3.629 -6.1248 8.7761 52.7026 0.0 0.0 0.0 7.1250 0.0 -0.0 -15.6355 -10.1636 -166.8566
8.8068 16.3259 31.4753 180.0230 1.1291 -158.0100 0.0000 0.0000 0.0000 -17.8974 -15.1102 -14.8145 0.1305 2.3283 6.4138 0.2340 0.7899 -9.4586 5.3728 -13.7917 -42.4093 0.0000 0.0000 0.0000 18.3032 15.5184 -14.8818 -0.2048 -2.9140 8.0395 -2.1259 0.4272 -27.4860 -0.9034 6.0573 -16.9508 -5.1466 -1.7113 -26.3247 -0.0478 -0.1777 -1.4522 2.8993 -0.1732 13.1471 -2.4331 -4.2989 -0.5476 6.4141 -4.8625 -9.7755 2.6102 -2.3310 -2.8093 0.0000 0.0000 0.0000 3.9343 -2.564 -19.4138 10.2714 -17.1629 1.5541 22.5689 7.2743 12.5318 0.0 0.0 0.0 -7.1250 0.0 0.0 -3.2473 16.4597 -2.1977 0.0000 0.0000 0.0000 1.6531 1.6059 10.1331 -15.8590 -25.329 -3.5854 -7.1614 9.2065 53.8325 0.0 0.0 0.0 7.1250 0.0 -0.0 -15.2372 -8.8869 -166.8118
8.7915 16.3116 31.5036 180.3030 1.6227 -157.1190 0.0000 0.0000 0.0000 -17.4958 -15.1623 -16.0250 0.1395 2.4071 6.6321 0.2355 1.0094 -9.5903 5.3780 -13.7973 -42.4313 0.0000 0.0000 0.0000 18.2595 15.4575 -16.5456 -0.2370 -3.1333 8.6502 -2.1176 1.4708 -27.1313 -0.9200 6.1112 -17.1075 -4.5878 -1.4296 -26.8976 -0.1315 0.1185 -1.7352 2.5986 0.0281 13.0990 -2.4270 -4.2683 -0.5232 6.4527 -4.8301 -9.6667 2.6193 -2.3189 -2.7781 -0.0000 -0.0000 0.0000 4.0136 -2.5755 -19.0138 9.9590 -16.6754 1.4632 22.3595 7.4461 12.6159 0.0 0.0 0.0 -7.1250 0.0 0.0 -3.3962 16.3905 -2.3039 -0.0000 -0.0000 0.0000 1.7828 1.608 9.8828 -15.6885 -25.0964 -3.5128 -8.7739 10.3146 54.3403 0.0 0.0 0.0 7.1250 0.0 -0.0 -14.6194 -8.0678 -167.14
8.7996 16.3170 31.4988 180.5120 0.5621 -157.8210 0.0000 0.0000 0.0000 -17.2047 -15.1816 -15.3586 0.1461 2.4636 6.7887 0.2391 0.3533 -9.3701 5.4252 -13.8472 -42.6288 0.0000 0.0000 0.0000 18.6583 19.7602 -16.2432 -0.5811 -4.8812 13.5699 -2.6806 -1.9669 -31.7194 -0.8741 5.9607 -16.6703 -4.3667 -1.6471 -26.1642 0.0145 -0.3414 -1.5338 2.4607 -0.1954 12.9703 -2.4835 -4.2376 -0.4131 6.4714 -4.7784 -9.8073 2.6430 -2.2920 -2.8470 0.0000 0.0000 0.0000 4.1015 -2.5477 -19.0542 9.6132 -16.1323 1.3655 22.2191 7.2406 12.643 0.0 0.0 0.0 -7.1250 0.0 0.0 -3.4946 16.3756 -2.3721 0.0000 0.0000 0.0000 1.8153 1.7171 9.8853 -15.6007 -24.9763 -3.4756 -10.8143 11.5752 53.6005 0.0 0.0 0.0 7.1250 0.0 -0.0 -13.7691 -8.3048 -168.0031
